<svg width="48" height="48" viewBox="0 0 48 48" fill="none" xmlns="http://www.w3.org/2000/svg">
<circle cx="24" cy="24" r="24" fill="#FF859B"/>
<path d="M33 29.3333C33 29.7754 32.8276 30.1993 32.5207 30.5118C32.2138 30.8244 31.7976 31 31.3636 31H16.6364C16.2024 31 15.7862 30.8244 15.4793 30.5118C15.1724 30.1993 15 29.7754 15 29.3333V20.1667C15 19.7246 15.1724 19.3007 15.4793 18.9882C15.7862 18.6756 16.2024 18.5 16.6364 18.5H19.9091L21.5455 16H26.4545L28.0909 18.5H31.3636C31.7976 18.5 32.2138 18.6756 32.5207 18.9882C32.8276 19.3007 33 19.7246 33 20.1667V29.3333Z" stroke="#312E38" stroke-width="1.5" stroke-linecap="round" stroke-linejoin="round"/>
<path d="M24 27C25.6569 27 27 25.6569 27 24C27 22.3431 25.6569 21 24 21C22.3431 21 21 22.3431 21 24C21 25.6569 22.3431 27 24 27Z" stroke="#312E38" stroke-width="1.5" stroke-linecap="round" stroke-linejoin="round"/>
</svg>
