<svg width="16" height="17" viewBox="0 0 16 17" fill="none" xmlns="http://www.w3.org/2000/svg">
<path fill-rule="evenodd" clip-rule="evenodd" d="M2 8.5C2 8.22386 2.22386 8 2.5 8H13.5C13.7761 8 14 8.22386 14 8.5C14 8.77614 13.7761 9 13.5 9H2.5C2.22386 9 2 8.77614 2 8.5Z" fill="#FF859B"/>
<path fill-rule="evenodd" clip-rule="evenodd" d="M7.35355 3.64645C7.54882 3.84171 7.54882 4.15829 7.35355 4.35355L3.20711 8.5L7.35355 12.6464C7.54882 12.8417 7.54882 13.1583 7.35355 13.3536C7.15829 13.5488 6.84171 13.5488 6.64645 13.3536L2.14645 8.85355C1.95118 8.65829 1.95118 8.34171 2.14645 8.14645L6.64645 3.64645C6.84171 3.45118 7.15829 3.45118 7.35355 3.64645Z" fill="#FF859B"/>
</svg>
