<svg width="84" height="12" viewBox="0 0 84 12" fill="none" xmlns="http://www.w3.org/2000/svg">
<path d="M9.2344 11.2502C9.15547 11.2505 9.07845 11.2259 9.01432 11.1799L6.00002 8.99455L2.98572 11.1799C2.92133 11.2266 2.84374 11.2516 2.76419 11.2513C2.68464 11.251 2.60723 11.2254 2.54318 11.1783C2.47912 11.1311 2.43173 11.0648 2.40785 10.9889C2.38396 10.913 2.38484 10.8315 2.41033 10.7561L3.58596 7.274L0.539084 5.18455C0.473087 5.13934 0.423276 5.07421 0.396929 4.99868C0.370582 4.92315 0.36908 4.84117 0.392643 4.76472C0.416206 4.68827 0.463598 4.62136 0.527895 4.57377C0.592193 4.52617 0.670025 4.50038 0.750022 4.50017H4.50893L5.6433 1.00916C5.66774 0.933789 5.71542 0.868096 5.77951 0.821505C5.84359 0.774913 5.92079 0.749817 6.00002 0.749817C6.07925 0.749817 6.15645 0.774913 6.22054 0.821505C6.28462 0.868096 6.3323 0.933789 6.35674 1.00916L7.49112 4.50135H11.25C11.3301 4.50131 11.4081 4.52691 11.4726 4.57442C11.5371 4.62192 11.5847 4.68883 11.6084 4.76533C11.6321 4.84184 11.6307 4.92393 11.6044 4.99957C11.5781 5.07522 11.5282 5.14046 11.4621 5.18572L8.41408 7.274L9.58901 10.7552C9.60804 10.8115 9.6134 10.8716 9.60463 10.9305C9.59586 10.9893 9.57322 11.0452 9.53857 11.0936C9.50393 11.1419 9.45827 11.1813 9.40539 11.2086C9.3525 11.2358 9.29389 11.2501 9.2344 11.2502Z" fill="#FF859B"/>
<path d="M45.2344 11.2502C45.1555 11.2505 45.0785 11.2259 45.0143 11.1799L42.0001 8.99455L38.9858 11.1799C38.9214 11.2266 38.8438 11.2516 38.7642 11.2513C38.6847 11.251 38.6073 11.2254 38.5432 11.1783C38.4792 11.1311 38.4318 11.0648 38.4079 10.9889C38.384 10.913 38.3849 10.8315 38.4104 10.7561L39.586 7.274L36.5391 5.18455C36.4731 5.13934 36.4233 5.07421 36.397 4.99868C36.3706 4.92315 36.3691 4.84117 36.3927 4.76472C36.4162 4.68827 36.4636 4.62136 36.5279 4.57377C36.5922 4.52617 36.6701 4.50038 36.7501 4.50017H40.509L41.6433 1.00916C41.6678 0.933789 41.7155 0.868096 41.7795 0.821505C41.8436 0.774913 41.9208 0.749817 42.0001 0.749817C42.0793 0.749817 42.1565 0.774913 42.2206 0.821505C42.2847 0.868096 42.3323 0.933789 42.3568 1.00916L43.4911 4.50135H47.2501C47.3301 4.50131 47.4082 4.52691 47.4726 4.57442C47.5371 4.62192 47.5847 4.68883 47.6084 4.76533C47.6321 4.84184 47.6307 4.92393 47.6044 4.99957C47.5781 5.07522 47.5282 5.14046 47.4622 5.18572L44.4141 7.274L45.589 10.7552C45.6081 10.8115 45.6134 10.8716 45.6047 10.9305C45.5959 10.9893 45.5732 11.0452 45.5386 11.0936C45.504 11.1419 45.4583 11.1813 45.4054 11.2086C45.3525 11.2358 45.2939 11.2501 45.2344 11.2502Z" fill="#FF859B"/>
<path d="M63.2344 11.2502C63.1555 11.2505 63.0785 11.2259 63.0143 11.1799L60.0001 8.99455L56.9858 11.1799C56.9214 11.2266 56.8438 11.2516 56.7642 11.2513C56.6847 11.251 56.6073 11.2254 56.5432 11.1783C56.4792 11.1311 56.4318 11.0648 56.4079 10.9889C56.384 10.913 56.3849 10.8315 56.4104 10.7561L57.586 7.274L54.5391 5.18455C54.4731 5.13934 54.4233 5.07421 54.397 4.99868C54.3706 4.92315 54.3691 4.84117 54.3927 4.76472C54.4162 4.68827 54.4636 4.62136 54.5279 4.57377C54.5922 4.52617 54.6701 4.50038 54.7501 4.50017H58.509L59.6433 1.00916C59.6678 0.933789 59.7155 0.868096 59.7795 0.821505C59.8436 0.774913 59.9208 0.749817 60.0001 0.749817C60.0793 0.749817 60.1565 0.774913 60.2206 0.821505C60.2847 0.868096 60.3323 0.933789 60.3568 1.00916L61.4911 4.50135H65.2501C65.3301 4.50131 65.4082 4.52691 65.4726 4.57442C65.5371 4.62192 65.5847 4.68883 65.6084 4.76533C65.6321 4.84184 65.6307 4.92393 65.6044 4.99957C65.5781 5.07522 65.5282 5.14046 65.4622 5.18572L62.4141 7.274L63.589 10.7552C63.6081 10.8115 63.6134 10.8716 63.6047 10.9305C63.5959 10.9893 63.5732 11.0452 63.5386 11.0936C63.504 11.1419 63.4583 11.1813 63.4054 11.2086C63.3525 11.2358 63.2939 11.2501 63.2344 11.2502Z" fill="#FF859B"/>
<path d="M27.2344 11.2502C27.1555 11.2505 27.0785 11.2259 27.0143 11.1799L24.0001 8.99455L20.9858 11.1799C20.9214 11.2266 20.8438 11.2516 20.7642 11.2513C20.6847 11.251 20.6073 11.2254 20.5432 11.1783C20.4792 11.1311 20.4318 11.0648 20.4079 10.9889C20.384 10.913 20.3849 10.8315 20.4104 10.7561L21.586 7.274L18.5391 5.18455C18.4731 5.13934 18.4233 5.07421 18.397 4.99868C18.3706 4.92315 18.3691 4.84117 18.3927 4.76472C18.4162 4.68827 18.4636 4.62136 18.5279 4.57377C18.5922 4.52617 18.6701 4.50038 18.7501 4.50017H22.509L23.6433 1.00916C23.6678 0.933789 23.7155 0.868096 23.7795 0.821505C23.8436 0.774913 23.9208 0.749817 24.0001 0.749817C24.0793 0.749817 24.1565 0.774913 24.2206 0.821505C24.2847 0.868096 24.3323 0.933789 24.3568 1.00916L25.4911 4.50135H29.2501C29.3301 4.50131 29.4082 4.52691 29.4726 4.57442C29.5371 4.62192 29.5847 4.68883 29.6084 4.76533C29.6321 4.84184 29.6307 4.92393 29.6044 4.99957C29.5781 5.07522 29.5282 5.14046 29.4622 5.18572L26.4141 7.274L27.589 10.7552C27.6081 10.8115 27.6134 10.8716 27.6047 10.9305C27.5959 10.9893 27.5732 11.0452 27.5386 11.0936C27.504 11.1419 27.4583 11.1813 27.4054 11.2086C27.3525 11.2358 27.2939 11.2501 27.2344 11.2502Z" fill="#FF859B"/>
<path fill-rule="evenodd" clip-rule="evenodd" d="M78 0.75C78.1624 0.75 78.3064 0.854597 78.3566 1.00909L79.4911 4.5H83.25C83.4143 4.5 83.5595 4.60701 83.6082 4.76399C83.6568 4.92097 83.5976 5.09133 83.462 5.18427L80.4147 7.27385L81.5897 10.7551C81.6418 10.9097 81.5881 11.0803 81.4567 11.177C81.3253 11.2737 81.1464 11.2744 81.0143 11.1787L78 8.99436L74.9856 11.1787C74.8535 11.2744 74.6747 11.2737 74.5433 11.177C74.4119 11.0803 74.3581 10.9097 74.4103 10.7551L75.5852 7.27385L72.5379 5.18427C72.4024 5.09133 72.3431 4.92097 72.3918 4.76399C72.4404 4.60701 72.5856 4.5 72.75 4.5H76.5088L77.6433 1.00909C77.6935 0.854597 77.8375 0.75 78 0.75ZM78 2.33825L77.1379 4.99091C77.0876 5.1454 76.9437 5.25 76.7812 5.25H73.9599L76.2433 6.81573C76.3817 6.91063 76.4402 7.08592 76.3865 7.24492L75.4964 9.88232L77.7799 8.22759C77.9112 8.13247 78.0887 8.13247 78.22 8.22759L80.5035 9.88232L79.6134 7.24492C79.5597 7.08592 79.6182 6.91063 79.7566 6.81573L82.04 5.25H79.2187C79.0563 5.25 78.9123 5.1454 78.8621 4.99091L78 2.33825Z" fill="#FF859B"/>
</svg>
