<svg width="12" height="12" viewBox="0 0 12 12" fill="none" xmlns="http://www.w3.org/2000/svg">
<path d="M9.23443 11.2502C9.1555 11.2505 9.07848 11.2259 9.01435 11.1799L6.00005 8.99455L2.98576 11.1799C2.92136 11.2266 2.84377 11.2516 2.76422 11.2513C2.68467 11.251 2.60727 11.2254 2.54321 11.1783C2.47915 11.1311 2.43176 11.0648 2.40788 10.9889C2.384 10.913 2.38487 10.8315 2.41036 10.7561L3.58599 7.274L0.539115 5.18455C0.473117 5.13934 0.423306 5.07421 0.39696 4.99868C0.370613 4.92315 0.369111 4.84117 0.392674 4.76472C0.416236 4.68827 0.463628 4.62136 0.527926 4.57377C0.592223 4.52617 0.670056 4.50038 0.750052 4.50017H4.50896L5.64333 1.00916C5.66777 0.933789 5.71545 0.868096 5.77954 0.821505C5.84362 0.774913 5.92082 0.749817 6.00005 0.749817C6.07928 0.749817 6.15648 0.774913 6.22057 0.821505C6.28465 0.868096 6.33233 0.933789 6.35677 1.00916L7.49115 4.50135H11.2501C11.3301 4.50131 11.4082 4.52691 11.4726 4.57442C11.5371 4.62192 11.5847 4.68883 11.6084 4.76533C11.6321 4.84184 11.6307 4.92393 11.6044 4.99957C11.5781 5.07522 11.5282 5.14046 11.4622 5.18572L8.41411 7.274L9.58904 10.7552C9.60807 10.8115 9.61343 10.8716 9.60466 10.9305C9.59589 10.9893 9.57325 11.0452 9.5386 11.0936C9.50396 11.1419 9.45831 11.1813 9.40542 11.2086C9.35253 11.2358 9.29392 11.2501 9.23443 11.2502Z" fill="#FF859B"/>
</svg>
